<?xml version="1.0" encoding="UTF-8" standalone="no"?>
<!-- Created with Inkscape (http://www.inkscape.org/) -->

<svg
   width="210mm"
   height="210mm"
   viewBox="0 0 210 210"
   version="1.1"
   id="svg1"
   xml:space="preserve"
   inkscape:version="1.4.4 (dcaf3e7d9e, 2026-05-05)"
   sodipodi:docname="3.svg"
   xmlns:inkscape="http://www.inkscape.org/namespaces/inkscape"
   xmlns:sodipodi="http://sodipodi.sourceforge.net/DTD/sodipodi-0.dtd"
   xmlns:xlink="http://www.w3.org/1999/xlink"
   xmlns="http://www.w3.org/2000/svg"
   xmlns:svg="http://www.w3.org/2000/svg"><sodipodi:namedview
     id="namedview1"
     pagecolor="#ffffff"
     bordercolor="#000000"
     borderopacity="0.25"
     inkscape:showpageshadow="2"
     inkscape:pageopacity="0.0"
     inkscape:pagecheckerboard="0"
     inkscape:deskcolor="#d1d1d1"
     inkscape:document-units="mm"
     inkscape:zoom="0.70710678"
     inkscape:cx="181.01934"
     inkscape:cy="303.34881"
     inkscape:window-width="2560"
     inkscape:window-height="1366"
     inkscape:window-x="0"
     inkscape:window-y="0"
     inkscape:window-maximized="1"
     inkscape:current-layer="layer1" /><defs
     id="defs1" /><g
     inkscape:label="Layer 1"
     inkscape:groupmode="layer"
     id="layer1"><path
       style="fill:#ffffff;stroke-width:1.3386"
       d="m 46.066965,201.44828 43.614406,-50.87785 h 59.870399 l 13.66307,-15.9222 -0.30558,-15.14333 -14.4669,-16.88828 -60.424607,0.1872 -0.366026,31.6339 -22.699212,26.01544 C 64.614193,109.8203 64.775883,59.18544 64.775883,8.551718 h 92.480897 c 10.27324,12.217581 20.54513,24.430364 30.50439,36.904543 v 19.458127 l -18.66743,22.656308 18.66742,22.405034 v 36.8553 l -26.90302,32.24526 -69.262105,0.0442 -18.944473,22.32768 z M 88.483145,83.951629 96.071245,75.20435 144.61875,74.986534 161.39719,53.024038 146.45036,35.454711 88.384838,35.720263 C 87.71238,51.789224 87.963695,67.872958 87.983049,83.951252 Z M 22.649845,189.30837 22.34238,91.822951 52.862814,56.501284 53.429042,153.83685 22.983024,189.1863 Z M 22.353372,72.97269 C 22.1568,58.514671 22.259519,44.056722 22.322447,29.598306 L 40.686205,8.551718 h 12.742799 v 28.565115 z"
       id="path3"
       sodipodi:nodetypes="cccccccccccccccccccccccccccccccccccccccc" /></g></svg>
